<?xml version="1.0" encoding="utf-8"?>
<!-- Generator: Adobe Illustrator 18.1.1, SVG Export Plug-In . SVG Version: 6.00 Build 0)  -->
<svg version="1.1" id="Layer_1" xmlns="http://www.w3.org/2000/svg" xmlns:xlink="http://www.w3.org/1999/xlink" x="0px" y="0px"
	 viewBox="-281 372.1 48.9 48.9" enable-background="new -281 372.1 48.9 48.9" xml:space="preserve">
<g>
	<path fill="#F9F9F9" d="M-279.4,384.7l0-10.7h0.8c1.5,0.1,2.7,0.6,3.6,1.5c1,1.1,1.5,2.4,1.5,3.8c0,1.5-0.5,2.8-1.5,3.8
		c-0.9,0.9-2,1.4-3.4,1.5L-279.4,384.7L-279.4,384.7z M-278.9,374.6v9.5c1.4,0,2.6-0.5,3.5-1.4c0.9-0.9,1.4-2.1,1.4-3.4
		c0-1.3-0.4-2.4-1.3-3.4c-0.8-0.9-1.9-1.4-3.2-1.4C-278.6,374.6-278.7,374.6-278.9,374.6L-278.9,374.6z"/>
	<path fill="#F9F9F9" d="M-269.8,381.1c-0.2,0-0.3,0-0.5,0v0h-1.7v3.5h-0.5V374h2.2v0c1,0,1.8,0.4,2.4,1c0.7,0.7,1,1.5,1,2.5
		c0,1-0.3,1.8-1,2.5c-0.4,0.4-0.9,0.7-1.4,0.9l2.1,3.7h-0.6L-269.8,381.1L-269.8,381.1z M-270.2,380.6L-270.2,380.6
		c0.7,0,1.4-0.3,2-0.9c0.6-0.6,0.9-1.3,0.9-2.1c0-0.8-0.3-1.5-0.9-2.1c-0.5-0.5-1.2-0.8-2-0.9h-1.8v6.1L-270.2,380.6L-270.2,380.6z"
		/>
	<polygon fill="#F9F9F9" points="-261,374 -261.4,374.6 -265.1,374.6 -265.1,377.6 -263.5,377.6 -263.5,378.1 -265.1,378.1 
		-265.1,384.1 -261.4,384.1 -262,384.7 -265.6,384.7 -265.6,374 	"/>
	<path fill="#F9F9F9" d="M-255.7,374.9c-0.3-0.4-0.8-0.5-1.2-0.5h-0.1c-0.5,0-0.9,0.2-1.2,0.5c-0.3,0.3-0.5,0.7-0.5,1.2
		c0,0.2,0.1,0.5,0.2,1l1.1,4.4c0.1,0.5,0.2,0.8,0.2,1c0,0.6-0.2,1.2-0.7,1.7s-1,0.7-1.6,0.7h-0.1c-0.6,0-1.1-0.2-1.4-0.6l0.4-0.4
		c0.3,0.3,0.6,0.4,1.1,0.4h0.1c0.5,0,0.9-0.2,1.2-0.5c0.3-0.3,0.5-0.7,0.5-1.2c0-0.2-0.1-0.5-0.2-1c-0.8-3.2-1.3-5-1.3-5.4
		c0-0.6,0.2-1.2,0.7-1.7c0.4-0.5,1-0.7,1.6-0.7h0.1c0.6,0,1.1,0.2,1.5,0.6L-255.7,374.9L-255.7,374.9z"/>
	<path fill="#F9F9F9" d="M-251,374.9c-0.4-0.4-0.9-0.5-1.3-0.5h-0.1c-0.5,0-0.9,0.2-1.2,0.5c-0.3,0.3-0.5,0.7-0.5,1.2
		c0,0.2,0.1,0.5,0.2,1l1.1,4.4c0.1,0.5,0.2,0.8,0.2,1c0,0.6-0.2,1.2-0.7,1.7c-0.4,0.5-1,0.7-1.6,0.7h-0.1c-0.6,0-1.1-0.2-1.4-0.6
		l0.4-0.4c0.3,0.3,0.6,0.4,1.1,0.4h0.1c0.5,0,0.9-0.2,1.2-0.5c0.3-0.3,0.5-0.7,0.5-1.2c0-0.2-0.1-0.5-0.2-1c-0.8-3.2-1.3-5-1.3-5.4
		c0-0.6,0.2-1.2,0.7-1.7c0.4-0.5,1-0.7,1.6-0.7h0.1c0.6,0,0.9,0.1,1.3,0.4L-251,374.9L-251,374.9z"/>
	<polygon fill="#F9F9F9" points="-249.4,384.1 -245.7,384.1 -245.7,384.7 -249.9,384.7 -249.9,374 -249.4,374 	"/>
	<polygon fill="#F9F9F9" points="-240.7,374 -240.7,374.6 -244.3,374.6 -244.3,377.6 -242.7,377.6 -242.7,378.1 -244.3,378.1 
		-244.3,384.1 -240.7,384.1 -240.7,384.7 -244.8,384.7 -244.8,374 	"/>
	<path fill="#F9F9F9" d="M-236.8,381.1c-0.2,0-0.3,0-0.5,0v0h-1.7v3.5h-0.5V374h2.2v0c1,0,1.8,0.4,2.4,1c0.7,0.7,1,1.5,1,2.5
		c0,1-0.3,1.8-1,2.5c-0.4,0.4-0.9,0.7-1.4,0.9l2.1,3.7h-0.6L-236.8,381.1L-236.8,381.1z M-237.1,380.6L-237.1,380.6
		c0.7,0,1.4-0.3,2-0.9c0.6-0.6,0.9-1.3,0.9-2.1c0-0.8-0.3-1.5-0.9-2.1c-0.5-0.5-1.2-0.8-2-0.9h-1.8v6.1H-237.1L-237.1,380.6z"/>
	<path fill="#F9F9F9" d="M-281,421v-48.9h48.9V421H-281L-281,421z M-280.4,372.7v47.6h47.6v-47.6H-280.4L-280.4,372.7z"/>
</g>
</svg>
